<svg width="202" height="30" viewBox="0 0 202 30" fill="none" xmlns="http://www.w3.org/2000/svg">
<g id="Horizontal logo in white bg 1" clip-path="url(#clip0_3125_6753)">
<path id="Vector" fill-rule="evenodd" clip-rule="evenodd" d="M35.1635 12.136V28.9463C35.1465 29.1325 35.0636 29.3069 34.9292 29.439C34.7948 29.5712 34.6174 29.6528 34.4281 29.6695H11.621C11.5353 29.6705 11.4501 29.6548 11.3705 29.6234C11.2909 29.592 11.2183 29.5454 11.1571 29.4864L1.39164 19.8242L1.27643 19.7093L0.654653 19.0885L0.190684 18.623C0.103487 18.5323 0.0449787 18.4186 0.0222771 18.2957C-0.000424407 18.1729 0.0136592 18.0463 0.0628147 17.9312C0.11197 17.8161 0.194079 17.7175 0.299152 17.6475C0.404225 17.5774 0.527734 17.5389 0.654653 17.5366H22.832V0.855143C22.832 0.594422 22.8084 0.315078 22.9899 0.133504C23.1713 -0.0480691 23.5185 0.00935159 23.7789 0.00935159H46.1331C46.3374 0.00942934 46.5336 0.0885892 46.6791 0.229723L56.5155 9.85157L56.566 9.90123L56.97 10.3016L57.5161 10.8355C57.625 10.9417 57.6994 11.0773 57.7297 11.2251C57.76 11.373 57.745 11.5264 57.6864 11.6658C57.6279 11.8052 57.5285 11.9243 57.401 12.008C57.2734 12.0918 57.1234 12.1363 56.97 12.136H35.1635ZM35.1493 9.85312L27.5001 2.29066H45.4908L53.2236 9.85312H35.1493ZM4.66467 19.8242L12.3091 27.3866H30.3881L22.6553 19.8242H4.66467Z" fill="#7234F7"/>
<path id="Vector_2" d="M70.6746 17.9897C68.5599 17.9897 66.6835 19.5416 66.6835 22.4127C66.6835 25.2837 68.5599 26.8946 70.7345 26.8946C72.9976 26.8946 74.0407 25.3427 74.3642 24.2563L77.4021 25.3427C76.7172 27.5697 74.5425 29.9984 70.7298 29.9984C66.4689 29.9984 63.2227 26.7394 63.2227 22.4111C63.2227 18.0161 66.4689 14.8533 70.6398 14.8533C74.5425 14.8533 76.6872 17.2557 77.2822 19.5401L74.1843 20.6528C73.8561 19.3989 72.8792 17.9897 70.6746 17.9897ZM86.7036 26.952C88.8498 26.952 90.7562 25.4001 90.7562 22.4127C90.7562 19.4532 88.8498 17.9307 86.7036 17.9307C84.5889 17.9307 82.6525 19.4532 82.6525 22.4127C82.6525 25.3722 84.5873 26.952 86.7036 26.952ZM86.7036 14.8549C91.0529 14.8549 94.2407 18.0471 94.2407 22.4127C94.2407 26.8061 91.0529 30 86.7036 30C82.3842 30 79.198 26.8061 79.198 22.4127C79.198 18.0471 82.3779 14.8549 86.7036 14.8549ZM106.935 27.9778C106.22 29.2675 104.522 29.9705 102.824 29.9705C99.3696 29.9705 97.3433 27.4502 97.3433 24.2874V15.2941H100.799V23.6744C100.799 25.4327 101.633 26.9334 103.719 26.9334C105.714 26.9334 106.757 25.6143 106.757 23.7396V15.2941H110.213V26.952C110.212 27.8231 110.262 28.6936 110.361 29.5592H107.047C106.969 29.0356 106.932 28.507 106.935 27.9778ZM123.174 15.2087V18.6664C122.8 18.6087 122.421 18.5791 122.043 18.5779C119.36 18.5779 118.14 20.1019 118.14 22.7681V29.5639H114.685V15.2941H118.051V17.5785C118.736 16.0266 120.344 15.1187 122.251 15.1187C122.561 15.121 122.87 15.1511 123.174 15.2087ZM124.807 25.6965L127.815 24.8755C127.935 26.1652 128.92 27.3074 130.765 27.3074C132.195 27.3074 132.939 26.5454 132.939 25.667C132.939 24.905 132.403 24.32 131.241 24.0856L129.097 23.6201C126.535 23.0629 125.194 21.4225 125.194 19.4594C125.194 16.9763 127.519 14.8611 130.527 14.8611C134.578 14.8611 135.892 17.4388 136.127 18.8448L133.208 19.6642C133.088 18.8448 132.463 17.5273 130.525 17.5273C129.303 17.5273 128.44 18.2877 128.44 19.1676C128.44 19.9281 129.005 20.4852 129.9 20.6606L132.109 21.0998C134.851 21.6864 136.28 23.3267 136.28 25.4358C136.28 27.6085 134.494 30.0062 130.8 30.0062C126.595 30 124.987 27.3043 124.807 25.6934V25.6965ZM142.031 20.8592H149.15C149.09 19.1893 147.959 17.6964 145.576 17.6964C144.686 17.6784 143.823 17.9961 143.163 18.5843C142.504 19.1724 142.099 19.9865 142.031 20.8592ZM149.538 24.5838L152.447 25.4886C151.673 27.9716 149.379 30 145.894 30C141.962 30 138.477 27.1879 138.477 22.3537C138.477 17.8423 141.873 14.8549 145.536 14.8549C150.005 14.8549 152.627 17.7554 152.627 22.2652C152.637 22.6295 152.607 22.9938 152.537 23.3516H141.932C142.022 25.5243 143.75 27.0762 145.894 27.0762C147.985 27.07 149.058 25.9867 149.535 24.5807L149.538 24.5838ZM168.753 15.2972L163.072 29.5623H159.616L153.709 15.2941H157.522L161.365 25.4886L165.117 15.2941L168.753 15.2972ZM174.722 29.5623H171.297V15.2941H174.722V29.5623ZM170.753 10.2845C170.75 9.84591 170.88 9.41643 171.126 9.05062C171.372 8.68482 171.723 8.39921 172.135 8.2301C172.546 8.06099 172.999 8.01602 173.437 8.1009C173.875 8.18578 174.277 8.39669 174.592 8.70681C174.907 9.01693 175.122 9.41225 175.208 9.84253C175.294 10.2728 175.249 10.7186 175.077 11.1233C174.905 11.5279 174.614 11.8732 174.242 12.1151C173.87 12.357 173.434 12.4847 172.988 12.482C172.694 12.4824 172.403 12.4258 172.132 12.3155C171.861 12.2053 171.614 12.0434 171.407 11.8393C171.199 11.6351 171.034 11.3927 170.922 11.1259C170.81 10.8591 170.753 10.5732 170.753 10.2845ZM183.552 10.9301V15.2941H186.561V18.3125H183.552V24.933C183.552 26.1931 184.118 26.7208 185.4 26.7208C185.799 26.7135 186.197 26.6741 186.589 26.6028V29.4149C186.381 29.5033 185.726 29.7377 184.475 29.7377C181.792 29.7377 180.125 28.1547 180.125 25.4901V18.3125H177.443V15.2941H178.186C179.736 15.2941 180.421 14.3272 180.421 13.0671V10.9301H183.552ZM189.245 25.6934C189.245 23.1452 191.153 21.7391 193.625 21.3869L197.348 20.8297C198.182 20.7133 198.421 20.3036 198.421 19.8055C198.421 18.6043 197.586 17.6328 195.679 17.6328C193.863 17.6328 192.85 18.775 192.701 20.2105L189.545 19.5075C189.814 17.0477 192.078 14.8518 195.653 14.8518C200.12 14.8518 201.818 17.3348 201.818 20.1826V27.2717C201.809 28.0369 201.869 28.8013 201.997 29.5561H198.78C198.75 29.4692 198.631 28.8826 198.631 27.7404C197.946 28.8267 196.516 29.9969 194.163 29.9969C191.128 30 189.25 27.9483 189.25 25.6934H189.245ZM194.816 27.3338C196.753 27.3338 198.421 26.4259 198.421 23.6433V22.9977L194.633 23.5549C193.563 23.7302 192.698 24.3169 192.698 25.4886C192.706 26.4554 193.451 27.3338 194.821 27.3338H194.816Z" fill="url(#paint0_linear_3125_6753)"/>
</g>
<defs>
<linearGradient id="paint0_linear_3125_6753" x1="126.113" y1="15.5346" x2="176.192" y2="65.9787" gradientUnits="userSpaceOnUse">
<stop stop-color="#7233F7"/>
<stop offset="1" stop-color="#FF7262"/>
</linearGradient>
<clipPath id="clip0_3125_6753">
<rect width="202" height="30" fill="white"/>
</clipPath>
</defs>
</svg>
